<svg width="342" height="359" viewBox="0 0 342 359" fill="none" xmlns="http://www.w3.org/2000/svg">
<path d="M302.34 120.806C304.492 95.2175 312.209 71.7266 325.793 50.1862L273.671 0C257.208 13.6456 238.447 21.2076 217.208 22.5389C197.734 24.2339 179.282 20.6735 161.914 11.8345C144.065 20.3794 125.683 23.963 106.526 22.5389C87.0281 20.9817 68.3821 13.881 52.7873 2.07432L0.534522 52.245C13.3907 74.0873 20.5502 96.9435 21.9511 120.806C22.6167 131.789 19.3659 146.928 12.0516 166.472C8.73269 175.702 5.83239 185.077 3.35962 194.568C1.53298 202.378 0.395203 208.709 0.00820323 213.469C-0.254957 234.298 5.8132 253.106 18.2591 269.832C27.9883 282.038 44.0333 295.521 66.309 310.266C90.6746 322.208 109.537 329.956 122.749 333.261L133.709 338.176C137.153 339.755 140.845 341.311 144.692 342.998C153.013 347.797 158.841 352.99 161.914 358.354C165.691 352.542 171.658 347.487 179.584 342.998C184.336 341.037 189.048 338.98 193.717 336.829L201.991 333.269C204.816 331.93 208.508 330.382 212.998 328.671C218.552 326.554 224.136 324.513 229.747 322.549C242.618 318.168 251.992 314.012 257.944 310.266C279.554 295.529 295.351 282.255 305.405 270.405C318.292 253.624 324.562 234.723 324.276 213.485C323.509 203.964 319.322 188.748 311.721 168.012C304.492 147.803 301.295 132.122 302.34 120.806Z" fill="#F8F8F8"/>
<ellipse cx="300" cy="56" rx="42" ry="41" fill="#9D1922"/>
<path fill-rule="evenodd" clip-rule="evenodd" d="M306.875 33.4167C306.875 33.273 306.818 33.1352 306.716 33.0337C306.615 32.9321 306.477 32.875 306.333 32.875H291.167C289.586 32.875 288.071 33.5028 286.953 34.6202C285.836 35.7376 285.208 37.2531 285.208 38.8333V69.1667C285.208 70.7469 285.836 72.2624 286.953 73.3798C288.071 74.4973 289.586 75.125 291.167 75.125H312.833C314.414 75.125 315.929 74.4973 317.047 73.3798C318.164 72.2624 318.792 70.7469 318.792 69.1667V47.8185C318.792 47.6748 318.735 47.5371 318.633 47.4355C318.531 47.3339 318.394 47.2768 318.25 47.2768H308.5C308.069 47.2768 307.656 47.1056 307.351 46.8009C307.046 46.4961 306.875 46.0828 306.875 45.6518V33.4167ZM308.5 54.5417C308.931 54.5417 309.344 54.7129 309.649 55.0176C309.954 55.3224 310.125 55.7357 310.125 56.1667C310.125 56.5976 309.954 57.011 309.649 57.3157C309.344 57.6205 308.931 57.7917 308.5 57.7917H295.5C295.069 57.7917 294.656 57.6205 294.351 57.3157C294.046 57.011 293.875 56.5976 293.875 56.1667C293.875 55.7357 294.046 55.3224 294.351 55.0176C294.656 54.7129 295.069 54.5417 295.5 54.5417H308.5ZM308.5 63.2083C308.931 63.2083 309.344 63.3795 309.649 63.6843C309.954 63.989 310.125 64.4024 310.125 64.8333C310.125 65.2643 309.954 65.6776 309.649 65.9824C309.344 66.2871 308.931 66.4583 308.5 66.4583H295.5C295.069 66.4583 294.656 66.2871 294.351 65.9824C294.046 65.6776 293.875 65.2643 293.875 64.8333C293.875 64.4024 294.046 63.989 294.351 63.6843C294.656 63.3795 295.069 63.2083 295.5 63.2083H308.5Z" fill="white"/>
<path d="M310.125 34.1187C310.125 33.72 310.543 33.4665 310.853 33.7157C311.115 33.928 311.351 34.175 311.553 34.4567L318.081 43.5502C318.228 43.7582 318.068 44.0269 317.812 44.0269H310.667C310.523 44.0269 310.385 43.9698 310.284 43.8682C310.182 43.7666 310.125 43.6288 310.125 43.4852V34.1187Z" fill="white"/>
</svg>
