<svg width="342" height="359" viewBox="0 0 342 359" fill="none" xmlns="http://www.w3.org/2000/svg">
<path d="M302.34 120.806C304.492 95.2175 312.209 71.7266 325.793 50.1862L273.671 0C257.208 13.6456 238.447 21.2076 217.208 22.5389C197.734 24.2339 179.282 20.6735 161.914 11.8345C144.065 20.3794 125.683 23.963 106.526 22.5389C87.0281 20.9817 68.3821 13.881 52.7873 2.07432L0.534522 52.245C13.3907 74.0873 20.5502 96.9435 21.9511 120.806C22.6167 131.789 19.3659 146.928 12.0516 166.472C8.73269 175.702 5.83239 185.077 3.35962 194.568C1.53298 202.378 0.395203 208.709 0.00820323 213.469C-0.254957 234.298 5.8132 253.106 18.2591 269.832C27.9883 282.038 44.0333 295.521 66.309 310.266C90.6746 322.208 109.537 329.956 122.749 333.261L133.709 338.176C137.153 339.755 140.845 341.311 144.692 342.998C153.013 347.797 158.841 352.99 161.914 358.354C165.691 352.542 171.658 347.487 179.584 342.998C184.336 341.037 189.048 338.98 193.717 336.829L201.991 333.269C204.816 331.93 208.508 330.382 212.998 328.671C218.552 326.554 224.136 324.513 229.747 322.549C242.618 318.168 251.992 314.012 257.944 310.266C279.554 295.529 295.351 282.255 305.405 270.405C318.292 253.624 324.562 234.723 324.276 213.485C323.509 203.964 319.322 188.748 311.721 168.012C304.492 147.803 301.295 132.122 302.34 120.806Z" fill="#F8F8F8"/>
<ellipse cx="300" cy="56" rx="42" ry="41" fill="#9D1922"/>
<path d="M304.625 70.875H289.25C287.891 70.875 286.587 70.335 285.626 69.3739C284.665 68.4128 284.125 67.1092 284.125 65.75V64.0417H301.208V67.4583C301.208 68.3645 301.568 69.2335 302.209 69.8743C302.85 70.515 303.719 70.875 304.625 70.875ZM304.625 70.875C305.531 70.875 306.4 70.515 307.041 69.8743C307.682 69.2335 308.042 68.3645 308.042 67.4583V43.5417C308.042 42.8659 308.242 42.2053 308.617 41.6435C308.993 41.0816 309.527 40.6437 310.151 40.3851C310.775 40.1265 311.462 40.0588 312.125 40.1907C312.788 40.3225 313.396 40.6479 313.874 41.1257C314.352 41.6035 314.678 42.2123 314.809 42.8751C314.941 43.5379 314.874 44.2249 314.615 44.8492C314.356 45.4735 313.918 46.0071 313.357 46.3825C312.795 46.758 312.134 46.9583 311.458 46.9583H308.042M311.458 40.125H292.667C291.307 40.125 290.004 40.665 289.043 41.6261C288.082 42.5872 287.542 43.8908 287.542 45.25V64.0417M294.375 46.9583H301.208M294.375 53.7917H301.208" stroke="#F8F8F8" stroke-width="3.41667" stroke-linecap="round" stroke-linejoin="round"/>
</svg>
