<svg width="1504" height="1504" viewBox="0 0 1504 1504" fill="none" xmlns="http://www.w3.org/2000/svg">
<path d="M1269 352.501H1056.5C1050.3 276.001 1015.53 204.638 959.111 152.605C902.69 100.573 828.751 71.6833 752 71.6833C675.249 71.6833 601.31 100.573 544.889 152.605C488.468 204.638 453.7 276.001 447.499 352.501H235C203.837 352.501 173.95 364.88 151.915 386.916C129.879 408.951 117.5 438.838 117.5 470.001V1175C117.5 1206.16 129.879 1236.05 151.915 1258.09C173.95 1280.12 203.837 1292.5 235 1292.5H1269C1300.16 1292.5 1330.05 1280.12 1352.09 1258.09C1374.12 1236.05 1386.5 1206.16 1386.5 1175V470.001C1386.5 438.838 1374.12 408.951 1352.09 386.916C1330.05 364.88 1300.16 352.501 1269 352.501ZM752 211.501C791.554 211.505 829.782 225.76 859.68 251.656C889.579 277.551 909.146 313.353 914.796 352.501H589.204C594.854 313.353 614.421 277.551 644.32 251.656C674.218 225.76 712.446 211.505 752 211.501ZM1245.5 1151.5H258.5V493.501H446.5V564.001C446.5 582.698 453.928 600.63 467.149 613.852C480.37 627.073 498.302 634.501 517 634.501C535.698 634.501 553.63 627.073 566.851 613.852C580.072 600.63 587.5 582.698 587.5 564.001V493.501H916.5V564.001C916.5 582.698 923.928 600.63 937.149 613.852C950.37 627.073 968.302 634.501 987 634.501C1005.7 634.501 1023.63 627.073 1036.85 613.852C1050.07 600.63 1057.5 582.698 1057.5 564.001V493.501H1245.5V1151.5Z" fill="#F8F8F8"/>
</svg>
