<svg width="382" height="359" viewBox="0 0 382 359" fill="none" xmlns="http://www.w3.org/2000/svg">
<path d="M302.34 120.806C304.492 95.2175 312.209 71.7266 325.793 50.1862L273.671 0C257.208 13.6456 238.447 21.2076 217.208 22.5389C197.734 24.2339 179.282 20.6735 161.914 11.8345C144.065 20.3794 125.683 23.963 106.526 22.5389C87.0281 20.9817 68.3821 13.881 52.7873 2.07432L0.534522 52.245C13.3907 74.0873 20.5502 96.9435 21.9511 120.806C22.6167 131.789 19.3659 146.928 12.0516 166.472C8.73269 175.702 5.83239 185.077 3.35962 194.568C1.53298 202.378 0.395203 208.709 0.00820323 213.469C-0.254957 234.298 5.8132 253.106 18.2591 269.832C27.9883 282.038 44.0333 295.521 66.309 310.266C90.6746 322.208 109.537 329.956 122.749 333.261L133.709 338.176C137.153 339.755 140.845 341.311 144.692 342.998C153.013 347.797 158.841 352.99 161.914 358.354C165.691 352.542 171.658 347.487 179.584 342.998C184.336 341.037 189.048 338.98 193.717 336.829L201.991 333.269C204.816 331.93 208.508 330.382 212.998 328.671C218.552 326.554 224.136 324.513 229.747 322.549C242.618 318.168 251.992 314.012 257.944 310.266C279.554 295.529 295.351 282.255 305.405 270.405C318.292 253.624 324.562 234.723 324.276 213.485C323.509 203.964 319.322 188.748 311.721 168.012C304.492 147.803 301.295 132.122 302.34 120.806Z" fill="#F8F8F8"/>
<ellipse cx="320" cy="75.5" rx="62" ry="60.5" fill="#9D1922"/>
<path d="M345.663 56.6169C345.098 55.0675 344.201 53.6605 343.034 52.4952C341.866 51.3299 340.458 50.4345 338.907 49.8721C336.009 48.9375 333.372 48.9375 328.018 48.9375H311.939C306.628 48.9375 303.946 48.9375 301.093 49.819C299.539 50.3858 298.129 51.2866 296.961 52.4577C295.794 53.6289 294.898 55.0419 294.337 56.597C293.428 59.4756 293.428 62.13 293.428 67.4389V83.5298C293.428 88.8653 293.428 91.5015 294.31 94.38C294.875 95.9295 295.772 97.3364 296.94 98.5017C298.107 99.6671 299.515 100.562 301.066 101.125C303.946 102.033 306.601 102.033 311.921 102.033H328.034C333.372 102.033 336.027 102.033 338.889 101.151C340.445 100.587 341.858 99.6887 343.028 98.5189C344.198 97.3491 345.097 95.9368 345.661 94.3817C346.57 91.5031 346.57 88.8487 346.57 83.5315V67.4837C346.57 62.1483 346.57 59.4938 345.661 56.6153L345.663 56.6169ZM332.005 66.8711L329.938 68.9296C329.736 69.1132 329.474 69.2164 329.201 69.2194C328.928 69.2225 328.664 69.1253 328.458 68.9462C326.461 67.2693 323.938 66.3453 321.33 66.3349C319.176 66.3349 317.031 67.0438 317.031 69.0159C317.031 71.0047 319.331 71.6704 321.986 72.6648C326.639 74.2219 330.489 76.1658 330.489 80.7227C330.489 85.6863 326.639 89.0927 320.352 89.4646L319.772 92.1273C319.722 92.3695 319.59 92.587 319.397 92.743C319.205 92.899 318.965 92.9841 318.718 92.9839H314.747L314.548 92.9673C314.265 92.9025 314.019 92.7297 313.862 92.4858C313.706 92.2419 313.651 91.9464 313.709 91.6625L314.332 88.852C311.944 88.2528 309.747 87.0566 307.948 85.3758V85.3493C307.749 85.1498 307.637 84.8793 307.637 84.5973C307.637 84.3153 307.749 84.0448 307.948 83.8453L310.162 81.7005C310.364 81.5133 310.63 81.4094 310.906 81.4094C311.182 81.4094 311.447 81.5133 311.65 81.7005C313.677 83.6134 316.37 84.6614 319.158 84.6222C322.038 84.6222 323.959 83.4037 323.959 81.4747C323.959 79.5457 322.013 79.0444 318.338 77.6698C314.437 76.277 310.743 74.3066 310.743 69.6982C310.743 64.3462 315.189 61.7349 320.465 61.4925L321.018 58.7684C321.069 58.5254 321.203 58.3079 321.398 58.1533C321.592 57.9987 321.834 57.9168 322.082 57.9217H326.018L326.243 57.9483C326.38 57.9769 326.51 58.0323 326.625 58.1113C326.741 58.1902 326.839 58.2912 326.916 58.4084C326.992 58.5257 327.045 58.6568 327.07 58.7944C327.096 58.9319 327.094 59.0731 327.065 59.21L326.468 62.2445C328.476 62.9074 330.338 63.9494 331.952 65.314L332.004 65.3655C332.419 65.807 332.419 66.4727 332.004 66.8695L332.005 66.8711Z" fill="#F8F8F8"/>
</svg>
