<svg width="1936" height="1936" viewBox="0 0 1936 1936" fill="none" xmlns="http://www.w3.org/2000/svg">
<path d="M1290.67 242C1290.67 220.606 1282.17 200.088 1267.04 184.96C1251.91 169.832 1231.39 161.333 1210 161.333H726C704.606 161.333 684.088 169.832 668.96 184.96C653.832 200.088 645.333 220.606 645.333 242V645.333H242C220.606 645.333 200.088 653.832 184.96 668.96C169.832 684.088 161.333 704.606 161.333 726V1210C161.333 1231.39 169.832 1251.91 184.96 1267.04C200.088 1282.17 220.606 1290.67 242 1290.67H645.333V1694C645.333 1715.39 653.832 1735.91 668.96 1751.04C684.088 1766.17 704.606 1774.67 726 1774.67H1210C1231.39 1774.67 1251.91 1766.17 1267.04 1751.04C1282.17 1735.91 1290.67 1715.39 1290.67 1694V1290.67H1694C1715.39 1290.67 1735.91 1282.17 1751.04 1267.04C1766.17 1251.91 1774.67 1231.39 1774.67 1210V726C1774.67 704.606 1766.17 684.088 1751.04 668.96C1735.91 653.832 1715.39 645.333 1694 645.333H1290.67V242Z" stroke="#F8F8F8" stroke-width="161.333" stroke-linecap="round" stroke-linejoin="round"/>
</svg>
