<svg width="2652" height="2652" viewBox="0 0 2652 2652" fill="none" xmlns="http://www.w3.org/2000/svg">
<path d="M1657.5 414.375V867.618L1408.88 1015.22V764.025L1284.56 841.679L994.5 1015.22V764.025L870.188 841.679L455.812 1090.3L414.375 1113.59V2237.62H2237.62V414.375H1657.5ZM1823.25 580.125H2071.88V2071.88H580.125V1204.26L828.75 1056.66V1307.85L953.062 1230.2L1243.12 1056.66V1307.85L1367.44 1230.2L1781.81 981.571L1823.25 958.284V580.125ZM745.875 1408.88V1574.62H911.625V1408.88H745.875ZM1077.38 1408.88V1574.62H1243.12V1408.88H1077.38ZM1408.88 1408.88V1574.62H1574.62V1408.88H1408.88ZM1740.38 1408.88V1574.62H1906.12V1408.88H1740.38ZM745.875 1740.38V1906.12H911.625V1740.38H745.875ZM1077.38 1740.38V1906.12H1243.12V1740.38H1077.38ZM1408.88 1740.38V1906.12H1574.62V1740.38H1408.88ZM1740.38 1740.38V1906.12H1906.12V1740.38H1740.38Z" fill="#F8F8F8"/>
</svg>
