<svg width="377" height="405" viewBox="0 0 377 405" fill="none" xmlns="http://www.w3.org/2000/svg">
<path d="M188.515 105.856C194.458 105.856 200.158 103.495 204.361 99.2924C208.563 95.0899 210.924 89.3901 210.924 83.4469C210.924 77.5037 208.563 71.8039 204.361 67.6014C200.158 63.3989 194.458 61.0379 188.515 61.0379C182.572 61.0379 176.872 63.3989 172.67 67.6014C168.467 71.8039 166.106 77.5037 166.106 83.4469C166.106 89.3901 168.467 95.0899 172.67 99.2924C176.872 103.495 182.572 105.856 188.515 105.856ZM349.827 306.582V163.014H352.301C376.309 163.014 386.176 132.15 366.55 118.25L209.271 6.62201C203.207 2.31431 195.953 0 188.515 0C181.077 0 173.823 2.31431 167.76 6.62201L10.4265 118.25C-9.14602 132.15 0.667133 162.987 24.6757 162.987H27.203V306.555C11.0449 316.933 0.317627 335.053 0.317627 355.674V391.513C0.317627 395.078 1.73391 398.497 4.2549 401.018C6.77589 403.539 10.1951 404.955 13.7603 404.955H363.27C366.835 404.955 370.254 403.539 372.775 401.018C375.296 398.497 376.712 395.078 376.712 391.513V355.674C376.712 335.053 366.012 316.933 349.827 306.582ZM183.299 28.5605C184.812 27.4886 186.621 26.913 188.475 26.913C190.329 26.913 192.137 27.4886 193.65 28.5605L345.257 136.102H31.7197L183.326 28.5605H183.299ZM322.888 162.987V297.575C321.403 297.465 319.914 297.411 318.425 297.414H269.117V163.014L322.888 162.987ZM54.0883 297.575V163.014H107.859V297.441H58.5513C57.0457 297.441 55.5401 297.495 54.0614 297.602L54.0883 297.575ZM58.5782 324.299H318.479C335.793 324.299 349.827 338.333 349.827 355.674V378.07H27.203V355.674C27.203 338.333 41.264 324.299 58.5782 324.299ZM175.072 297.414H134.744V163.014H175.072V297.441V297.414ZM201.958 297.414V163.014H242.286V297.441H201.958V297.414Z" fill="#F8F8F8"/>
</svg>
