<svg width="2229" height="2229" viewBox="0 0 2229 2229" fill="none" xmlns="http://www.w3.org/2000/svg">
<g clip-path="url(#clip0_261_18)">
<path d="M386.981 712.038L743.001 814.82L1134.31 530.623L572.731 546.721C567.232 547.021 561.903 548.727 557.251 551.674L379.551 653.837C374.023 656.899 369.541 661.55 366.685 667.187C363.829 672.824 362.73 679.188 363.531 685.457C364.331 691.725 366.994 697.61 371.174 702.348C375.355 707.087 380.861 710.463 386.981 712.038Z" fill="#F8F8F8"/>
<path d="M2137.37 393.789L1747.29 309.582C1714.49 302.46 1680.53 302.479 1647.73 309.637C1614.94 316.795 1584.06 330.924 1557.21 351.067L378.932 1207.37L95.9731 1194.99C79.7655 1194.44 63.7943 1198.99 50.3146 1208.01C36.8349 1217.03 26.5277 1230.05 20.8486 1245.24C15.1694 1260.43 14.4052 1277.02 18.6637 1292.67C22.9223 1308.31 31.9886 1322.23 44.5823 1332.45L320.111 1551.01C324.647 1554.67 330.047 1557.1 335.792 1558.08C341.538 1559.06 347.438 1558.54 352.927 1556.58C431.561 1526.24 724.427 1370.83 1070.54 1180.75L1139.89 1893.41C1140.48 1899.58 1142.74 1905.48 1146.43 1910.46C1150.12 1915.44 1155.11 1919.32 1160.84 1921.67C1166.57 1924.03 1172.84 1924.78 1178.97 1923.84C1185.1 1922.89 1190.85 1920.29 1195.61 1916.32L1350.4 1787.53C1358.88 1780.43 1364.58 1770.56 1366.5 1759.67L1513.25 936.798C1760.91 799.343 1997.43 666.222 2163.99 572.109C2181.27 562.704 2195.25 548.213 2204.02 530.599C2212.8 512.985 2215.94 493.1 2213.04 473.638C2210.13 454.176 2201.31 436.078 2187.78 421.795C2174.24 407.512 2156.64 397.735 2137.37 393.789Z" fill="#F8F8F8"/>
</g>
<defs>
<clipPath id="clip0_261_18">
<rect width="2229" height="2229" fill="white"/>
</clipPath>
</defs>
</svg>
