<svg width="662" height="662" viewBox="0 0 662 662" fill="none" xmlns="http://www.w3.org/2000/svg">
<path d="M620.625 289.625H591.249L520.42 165.655C516.801 159.324 511.573 154.061 505.265 150.401C498.957 146.741 491.794 144.813 484.501 144.812H177.499C170.206 144.813 163.043 146.741 156.735 150.401C150.427 154.061 145.199 159.324 141.58 165.655L70.7513 289.625H41.375C35.8883 289.625 30.6264 291.805 26.7467 295.684C22.8671 299.564 20.6875 304.826 20.6875 310.312C20.6875 315.799 22.8671 321.061 26.7467 324.941C30.6264 328.82 35.8883 331 41.375 331H62.0625V537.875C62.0625 548.848 66.4216 559.372 74.181 567.132C81.9403 574.891 92.4642 579.25 103.438 579.25H165.5C176.473 579.25 186.997 574.891 194.757 567.132C202.516 559.372 206.875 548.848 206.875 537.875V496.5H455.125V537.875C455.125 548.848 459.484 559.372 467.243 567.132C475.003 574.891 485.527 579.25 496.5 579.25H558.562C569.536 579.25 580.06 574.891 587.819 567.132C595.578 559.372 599.938 548.848 599.938 537.875V331H620.625C626.112 331 631.374 328.82 635.253 324.941C639.133 321.061 641.312 315.799 641.312 310.312C641.312 304.826 639.133 299.564 635.253 295.684C631.374 291.805 626.112 289.625 620.625 289.625ZM177.499 186.188H484.501L543.59 289.625H118.41L177.499 186.188ZM165.5 537.875H103.438V496.5H165.5V537.875ZM496.5 537.875V496.5H558.562V537.875H496.5ZM558.562 455.125H103.438V331H558.562V455.125ZM144.812 393.062C144.812 387.576 146.992 382.314 150.872 378.434C154.751 374.555 160.013 372.375 165.5 372.375H206.875C212.362 372.375 217.624 374.555 221.503 378.434C225.383 382.314 227.562 387.576 227.562 393.062C227.562 398.549 225.383 403.811 221.503 407.691C217.624 411.57 212.362 413.75 206.875 413.75H165.5C160.013 413.75 154.751 411.57 150.872 407.691C146.992 403.811 144.812 398.549 144.812 393.062ZM434.438 393.062C434.438 387.576 436.617 382.314 440.497 378.434C444.376 374.555 449.638 372.375 455.125 372.375H496.5C501.987 372.375 507.249 374.555 511.128 378.434C515.008 382.314 517.188 387.576 517.188 393.062C517.188 398.549 515.008 403.811 511.128 407.691C507.249 411.57 501.987 413.75 496.5 413.75H455.125C449.638 413.75 444.376 411.57 440.497 407.691C436.617 403.811 434.438 398.549 434.438 393.062ZM248.25 82.75C248.25 77.2633 250.43 72.0014 254.309 68.1217C258.189 64.2421 263.451 62.0625 268.938 62.0625H393.062C398.549 62.0625 403.811 64.2421 407.691 68.1217C411.57 72.0014 413.75 77.2633 413.75 82.75C413.75 88.2367 411.57 93.4986 407.691 97.3783C403.811 101.258 398.549 103.438 393.062 103.438H268.938C263.451 103.438 258.189 101.258 254.309 97.3783C250.43 93.4986 248.25 88.2367 248.25 82.75Z" fill="#F8F8F8"/>
</svg>
