<svg width="619" height="619" viewBox="0 0 619 619" fill="none" xmlns="http://www.w3.org/2000/svg">
<path fill-rule="evenodd" clip-rule="evenodd" d="M128.959 232.126C128.959 184.243 147.98 138.322 181.839 104.464C215.697 70.6054 261.618 51.5841 309.501 51.5841C357.383 51.5841 403.305 70.6054 437.163 104.464C471.021 138.322 490.042 184.243 490.042 232.126V258.82C533.785 265.088 567.417 302.718 567.417 348.188V354.636C567.414 365.82 565.173 376.89 560.826 387.194C556.478 397.498 550.113 406.828 542.105 414.635C534.096 422.441 524.607 428.566 514.195 432.649C503.783 436.732 492.66 438.69 481.48 438.408C462.394 493.086 413.854 529.942 361.471 539.279C349.349 543.715 335.009 541.626 322.397 541.626C312.136 541.626 302.296 537.55 295.04 530.294C287.785 523.039 283.709 513.199 283.709 502.938C283.709 492.678 287.785 482.837 295.04 475.582C302.296 468.327 312.136 464.251 322.397 464.251H348.188C354.245 464.25 360.216 465.67 365.623 468.398C371.03 471.126 375.721 475.086 379.319 479.958C412.745 464.044 438.459 430.438 438.459 386.876V232.126C438.459 197.924 424.872 165.123 400.688 140.938C376.504 116.754 343.703 103.167 309.501 103.167C275.299 103.167 242.498 116.754 218.313 140.938C194.129 165.123 180.542 197.924 180.542 232.126V393.324C180.542 405.294 175.787 416.775 167.323 425.239C158.858 433.704 147.378 438.459 135.407 438.459C113.176 438.459 91.8551 429.628 76.1353 413.908C60.4154 398.188 51.5841 376.867 51.5841 354.636V348.188C51.5785 326.477 59.3979 305.492 73.609 289.078C87.8201 272.664 107.471 261.922 128.959 258.82V232.126ZM128.959 311.693C121.413 314.361 114.88 319.304 110.261 325.84C105.642 332.376 103.163 340.184 103.167 348.188V354.636C103.167 370.24 114.258 383.265 128.959 386.231V311.693ZM490.042 311.693V386.231C504.744 383.239 515.834 370.24 515.834 354.636V348.188C515.838 340.184 513.36 332.376 508.741 325.84C504.121 319.304 497.589 314.361 490.042 311.693Z" fill="#F8F8F8"/>
</svg>
