<svg width="1080" height="1080" viewBox="0 0 1080 1080" fill="none" xmlns="http://www.w3.org/2000/svg">
<path d="M450 225L540 135M360 720L720 360M540 945L630 855M742.5 855C772.337 855 800.952 843.147 822.05 822.05C843.147 800.952 855 772.337 855 742.5C855 712.663 843.147 684.048 822.05 662.95C800.952 641.853 772.337 630 742.5 630C712.663 630 684.048 641.853 662.95 662.95C641.853 684.048 630 712.663 630 742.5C630 772.337 641.853 800.952 662.95 822.05C684.048 843.147 712.663 855 742.5 855ZM337.5 450C367.337 450 395.952 438.147 417.05 417.05C438.147 395.952 450 367.337 450 337.5C450 307.663 438.147 279.048 417.05 257.95C395.952 236.853 367.337 225 337.5 225C307.663 225 279.048 236.853 257.95 257.95C236.853 279.048 225 307.663 225 337.5C225 367.337 236.853 395.952 257.95 417.05C279.048 438.147 307.663 450 337.5 450ZM247.5 945C277.337 945 305.952 933.147 327.05 912.05C348.147 890.952 360 862.337 360 832.5C360 802.663 348.147 774.048 327.05 752.95C305.952 731.853 277.337 720 247.5 720C217.663 720 189.048 731.853 167.95 752.95C146.853 774.048 135 802.663 135 832.5C135 862.337 146.853 890.952 167.95 912.05C189.048 933.147 217.663 945 247.5 945ZM832.5 360C862.337 360 890.952 348.147 912.05 327.05C933.147 305.952 945 277.337 945 247.5C945 217.663 933.147 189.048 912.05 167.95C890.952 146.853 862.337 135 832.5 135C802.663 135 774.048 146.853 752.95 167.95C731.853 189.048 720 217.663 720 247.5C720 277.337 731.853 305.952 752.95 327.05C774.048 348.147 802.663 360 832.5 360Z" stroke="#F8F8F8" stroke-width="90" stroke-linecap="round" stroke-linejoin="round"/>
</svg>
