<svg width="342" height="359" viewBox="0 0 342 359" fill="none" xmlns="http://www.w3.org/2000/svg">
<path d="M302.34 120.806C304.492 95.2175 312.209 71.7266 325.793 50.1862L273.671 0C257.208 13.6456 238.447 21.2076 217.208 22.5389C197.734 24.2339 179.282 20.6735 161.914 11.8345C144.065 20.3794 125.683 23.963 106.526 22.5389C87.0281 20.9817 68.3821 13.881 52.7873 2.07432L0.534522 52.245C13.3907 74.0873 20.5502 96.9435 21.9511 120.806C22.6167 131.789 19.3659 146.928 12.0516 166.472C8.73269 175.702 5.83239 185.077 3.35962 194.568C1.53298 202.378 0.395203 208.709 0.00820323 213.469C-0.254957 234.298 5.8132 253.106 18.2591 269.832C27.9883 282.038 44.0333 295.521 66.309 310.266C90.6746 322.208 109.537 329.956 122.749 333.261L133.709 338.176C137.153 339.755 140.845 341.311 144.692 342.998C153.013 347.797 158.841 352.99 161.914 358.354C165.691 352.542 171.658 347.487 179.584 342.998C184.336 341.037 189.048 338.98 193.717 336.829L201.991 333.269C204.816 331.93 208.508 330.382 212.998 328.671C218.552 326.554 224.136 324.513 229.747 322.549C242.618 318.168 251.992 314.012 257.944 310.266C279.554 295.529 295.351 282.255 305.405 270.405C318.292 253.624 324.562 234.723 324.276 213.485C323.509 203.964 319.322 188.748 311.721 168.012C304.492 147.803 301.295 132.122 302.34 120.806Z" fill="#F8F8F8"/>
<ellipse cx="300" cy="56" rx="42" ry="41" fill="#9D1922"/>
<g clip-path="url(#clip0_1_37)">
<path d="M317.385 43.2031C317.002 42.1531 316.394 41.1996 315.604 40.4099C314.813 39.6202 313.859 39.0134 312.808 38.6322C310.845 37.9989 309.058 37.9989 305.431 37.9989H294.539C290.941 37.9989 289.125 37.9989 287.192 38.5962C286.139 38.9804 285.184 39.5908 284.393 40.3845C283.603 41.1782 282.996 42.1357 282.615 43.1896C282 45.1404 282 46.9392 282 50.537V61.4416C282 65.0574 282 66.8439 282.597 68.7946C282.98 69.8447 283.588 70.7981 284.378 71.5879C285.169 72.3776 286.123 72.9844 287.174 73.3655C289.125 73.9809 290.924 73.9809 294.527 73.9809H305.443C309.058 73.9809 310.857 73.9809 312.796 73.3835C313.85 73.0012 314.807 72.3922 315.599 71.5995C316.392 70.8068 317.001 69.8496 317.383 68.7957C317.999 66.845 317.999 65.0461 317.999 61.4427V50.5674C317.999 46.9516 317.999 45.1527 317.383 43.202L317.385 43.2031ZM308.133 50.1522L306.732 51.5472C306.595 51.6717 306.418 51.7416 306.233 51.7437C306.048 51.7457 305.869 51.6798 305.73 51.5585C304.377 50.4221 302.668 49.7959 300.901 49.7889C299.442 49.7889 297.988 50.2692 297.988 51.6057C297.988 52.9535 299.547 53.4046 301.345 54.0785C304.498 55.1337 307.105 56.4511 307.105 59.5392C307.105 62.903 304.498 65.2115 300.238 65.4635L299.846 67.268C299.812 67.4322 299.722 67.5795 299.592 67.6853C299.462 67.791 299.299 67.8486 299.131 67.8485H296.442L296.307 67.8372C296.115 67.7934 295.948 67.6762 295.842 67.511C295.736 67.3457 295.699 67.1454 295.738 66.953L296.16 65.0484C294.543 64.6423 293.054 63.8317 291.836 62.6926V62.6746C291.701 62.5394 291.625 62.3561 291.625 62.165C291.625 61.9739 291.701 61.7906 291.836 61.6554L293.336 60.2019C293.473 60.0751 293.653 60.0046 293.84 60.0046C294.026 60.0046 294.206 60.0751 294.344 60.2019C295.717 61.4982 297.541 62.2084 299.43 62.1819C301.38 62.1819 302.682 61.3561 302.682 60.0489C302.682 58.7416 301.363 58.4019 298.874 57.4704C296.231 56.5265 293.729 55.1911 293.729 52.0681C293.729 48.4411 296.741 46.6715 300.315 46.5072L300.69 44.6611C300.724 44.4965 300.815 44.349 300.947 44.2443C301.078 44.1395 301.243 44.084 301.411 44.0874H304.077L304.229 44.1054C304.322 44.1248 304.41 44.1623 304.488 44.2158C304.566 44.2693 304.633 44.3378 304.685 44.4172C304.737 44.4966 304.772 44.5855 304.79 44.6787C304.807 44.7719 304.806 44.8677 304.786 44.9604L304.382 47.0169C305.742 47.4661 307.003 48.1722 308.097 49.097L308.132 49.1319C308.413 49.4311 308.413 49.8822 308.132 50.1511L308.133 50.1522Z" fill="#F8F8F8"/>
</g>
<defs>
<clipPath id="clip0_1_37">
<rect width="36" height="36" fill="white" transform="translate(282 38)"/>
</clipPath>
</defs>
</svg>
