<svg width="396" height="396" viewBox="0 0 396 396" fill="none" xmlns="http://www.w3.org/2000/svg">
<path d="M365.434 76.1063C363.553 75.0201 361.419 74.4483 359.246 74.4483C357.074 74.4483 354.94 75.0201 353.059 76.1063L247.5 128.453V86.625C247.494 84.5155 246.948 82.4427 245.915 80.6033C244.882 78.764 243.396 77.2192 241.599 76.1157C239.801 75.0122 237.751 74.3866 235.643 74.2983C233.535 74.21 231.44 74.662 229.556 75.6113L123.75 128.453V37.125C123.75 33.8429 122.446 30.6953 120.125 28.3746C117.805 26.0538 114.657 24.75 111.375 24.75H37.125C33.8429 24.75 30.6953 26.0538 28.3746 28.3746C26.0538 30.6953 24.75 33.8429 24.75 37.125V346.5H371.25V86.625C371.254 84.5219 370.722 82.4525 369.705 80.6121C368.687 78.7716 367.217 77.2209 365.434 76.1063ZM272.25 321.75H222.75V235.125H272.25V321.75ZM346.5 321.75H297V222.75C297 219.468 295.696 216.32 293.375 214C291.055 211.679 287.907 210.375 284.625 210.375H210.375C207.093 210.375 203.945 211.679 201.625 214C199.304 216.32 198 219.468 198 222.75V321.75H49.5V49.5H99V168.547L222.75 106.672V168.547L346.5 106.672V321.75Z" fill="#F8F8F8"/>
</svg>
