<svg width="472" height="472" viewBox="0 0 472 472" fill="none" xmlns="http://www.w3.org/2000/svg">
<g clip-path="url(#clip0_48_29)">
<path d="M468.989 106.987C467.985 100.606 465.064 94.6812 460.616 89.9981C456.167 85.315 450.399 82.0948 444.078 80.7646L367.116 63.8512C358.863 62.0512 350.319 62.0445 342.063 63.8314C333.807 65.6184 326.031 69.1573 319.261 74.209L91.7828 239.933L28.0628 237.311C22.9404 237.128 17.8906 238.563 13.6304 241.413C9.37024 244.263 6.11638 248.383 4.33099 253.188C2.5456 257.992 2.31945 263.237 3.68467 268.178C5.04988 273.118 7.93705 277.503 11.9361 280.709L77.4916 332.236C85.3583 341.807 90.6028 339.971 220.796 269.04L232.989 392.547C233.192 395.916 234.347 399.158 236.32 401.897C238.293 404.636 241.002 406.758 244.134 408.018C246.387 408.908 248.791 409.354 251.214 409.329C256.09 409.18 260.748 407.27 264.325 403.953L295.661 375.371C298.781 372.48 300.894 368.667 301.692 364.489L330.405 208.467C377.212 182.245 421.527 157.596 453.125 139.633C458.778 136.454 463.326 131.624 466.161 125.79C468.996 119.956 469.983 113.396 468.989 106.987ZM440.145 116.82C407.367 135.438 361.478 161.529 312.181 188.538L306.805 191.553L276.256 357.671L256.983 375.24L242.561 227.085L225.123 236C131.116 288.445 99.7805 303.653 89.0294 308.373L32.6516 263.665L99.2561 266.549L335.256 95.3179C338.966 92.5446 343.219 90.5855 347.737 89.5688C352.256 88.5521 356.938 88.5007 361.478 89.4179L438.178 105.938C439.36 106.152 440.443 106.738 441.268 107.611C442.094 108.484 442.619 109.597 442.767 110.789C443.037 111.943 442.928 113.153 442.455 114.239C441.983 115.326 441.173 116.231 440.145 116.82Z" fill="#F8F8F8"/>
<path d="M91.7721 164.413L138.448 177.525L159.95 161.922L107.505 146.713L131.105 132.291L202.823 130.193L232.979 108.298L131.105 111.445C127.894 111.271 124.702 112.046 121.928 113.673L87.4455 133.733C84.5947 135.422 82.3076 137.917 80.8725 140.904C79.4374 143.89 78.9185 147.235 79.3812 150.516C79.8439 153.797 81.2675 156.867 83.4726 159.341C85.6777 161.814 88.5655 163.579 91.7721 164.413Z" fill="#F8F8F8"/>
</g>
<defs>
<clipPath id="clip0_48_29">
<rect width="472" height="472" fill="white"/>
</clipPath>
</defs>
</svg>
