<svg width="1203" height="1203" viewBox="0 0 1203 1203" fill="none" xmlns="http://www.w3.org/2000/svg">
<path d="M601.502 40.4512L1194.73 426.063L1102.75 485.862V802H1002.5V550.974L952.377 583.556V877.188C952.377 950.872 901.55 1008.26 839.445 1044.51C776.037 1081.5 691.827 1102.75 601.502 1102.75C511.177 1102.75 426.916 1081.5 363.558 1044.51C301.403 1008.31 250.627 950.872 250.627 877.188V583.606L8.27246 426.063L601.502 40.4512ZM350.877 648.768V877.188C350.877 900.396 367.418 930.671 414.084 957.889C459.598 984.455 525.713 1002.5 601.502 1002.5C677.291 1002.5 743.406 984.455 788.919 957.889C835.636 930.671 852.077 900.396 852.077 877.188V648.768L601.452 811.674L350.877 648.768ZM1010.77 426.063L601.502 159.999L192.231 426.063L601.502 692.076L1010.77 426.063Z" fill="#F8F8F8"/>
</svg>
