<svg width="356" height="359" viewBox="0 0 356 359" fill="none" xmlns="http://www.w3.org/2000/svg">
<path d="M302.34 120.806C304.492 95.2175 312.209 71.7266 325.793 50.1862L273.671 0C257.208 13.6456 238.447 21.2076 217.208 22.5389C197.734 24.2339 179.282 20.6735 161.914 11.8345C144.065 20.3794 125.683 23.963 106.526 22.5389C87.0281 20.9817 68.3821 13.881 52.7873 2.07432L0.534522 52.245C13.3907 74.0873 20.5502 96.9435 21.9511 120.806C22.6167 131.789 19.3659 146.928 12.0516 166.472C8.73269 175.702 5.83239 185.077 3.35962 194.568C1.53298 202.378 0.395203 208.709 0.00820323 213.469C-0.254957 234.298 5.8132 253.106 18.2591 269.832C27.9883 282.038 44.0333 295.521 66.309 310.266C90.6746 322.208 109.537 329.956 122.749 333.261L133.709 338.176C137.153 339.755 140.845 341.311 144.692 342.998C153.013 347.797 158.841 352.99 161.914 358.354C165.691 352.542 171.658 347.487 179.584 342.998C184.336 341.037 189.048 338.98 193.717 336.829L201.991 333.269C204.816 331.93 208.508 330.382 212.998 328.671C218.552 326.554 224.136 324.513 229.747 322.549C242.618 318.168 251.992 314.012 257.944 310.266C279.554 295.529 295.351 282.255 305.405 270.405C318.292 253.624 324.562 234.723 324.276 213.485C323.509 203.964 319.322 188.748 311.721 168.012C304.492 147.803 301.295 132.122 302.34 120.806Z" fill="#F8F8F8"/>
<ellipse cx="294" cy="79.5" rx="62" ry="60.5" fill="#9D1922"/>
<path d="M300.827 101.449H278.131C276.124 101.449 274.2 100.652 272.781 99.2342C271.363 97.816 270.565 95.8924 270.565 93.8867V91.3659H295.784V96.4076C295.784 97.7447 296.315 99.0271 297.261 99.9725C298.207 100.918 299.49 101.449 300.827 101.449ZM300.827 101.449C302.165 101.449 303.448 100.918 304.394 99.9725C305.34 99.0271 305.871 97.7447 305.871 96.4076V61.1159C305.871 60.1187 306.167 59.144 306.721 58.3149C307.275 57.4858 308.063 56.8396 308.985 56.458C309.906 56.0764 310.92 55.9766 311.899 56.1711C312.877 56.3656 313.776 56.8458 314.481 57.5509C315.186 58.256 315.667 59.1543 315.861 60.1323C316.056 61.1103 315.956 62.124 315.574 63.0453C315.193 63.9665 314.546 64.7539 313.717 65.3079C312.887 65.8619 311.912 66.1576 310.915 66.1576H305.871M310.915 56.0742H283.175C281.168 56.0742 279.244 56.871 277.825 58.2892C276.406 59.7075 275.609 61.631 275.609 63.6367V91.3659M285.696 66.1576H295.784M285.696 76.2409H295.784" stroke="#F8F8F8" stroke-width="5.04365" stroke-linecap="round" stroke-linejoin="round"/>
</svg>
