<svg width="764" height="764" viewBox="0 0 764 764" fill="none" xmlns="http://www.w3.org/2000/svg">
<path d="M238.75 573H286.5V716.25H238.75V573Z" fill="#F8F8F8"/>
<path d="M501.375 477.5H167.125C148.135 477.481 129.928 469.929 116.499 456.501C103.071 443.072 95.519 424.865 95.5 405.875V143.25H47.75V405.875C47.7879 437.524 60.3771 467.865 82.756 490.244C105.135 512.623 135.476 525.212 167.125 525.25H501.375C518.769 525.327 535.931 529.248 551.632 536.734L405.875 682.491L439.634 716.25L590.214 565.67C609.773 587.327 620.647 615.443 620.75 644.625V716.25H668.5V644.625C668.449 600.316 650.825 557.837 619.494 526.506C588.163 495.175 545.684 477.551 501.375 477.5Z" fill="#F8F8F8"/>
<path d="M603.441 96.4312L436.316 48.6812C432.024 47.4551 427.476 47.4551 423.184 48.6812L256.059 96.4312C250.111 98.1351 245.056 102.082 241.961 107.44C238.865 112.798 237.971 119.148 239.466 125.153L262.625 217.812V262.625C262.625 284.572 266.948 306.304 275.347 326.581C283.746 346.858 296.056 365.281 311.575 380.8C327.094 396.319 345.518 408.63 365.794 417.028C386.071 425.427 407.803 429.75 429.75 429.75C451.697 429.75 473.43 425.427 493.706 417.028C513.983 408.63 532.406 396.319 547.925 380.8C563.444 365.281 575.755 346.858 584.153 326.581C592.552 306.304 596.875 284.572 596.875 262.625V217.812L620.034 125.177C621.536 119.169 620.645 112.812 617.549 107.449C614.453 102.086 609.395 98.135 603.441 96.4312ZM429.75 96.455L568.106 135.992L554.378 191H453.625V143.25H405.875V191H305.146L291.394 135.992L429.75 96.455ZM429.75 382C398.102 381.962 367.76 369.373 345.381 346.994C323.002 324.615 310.413 294.274 310.375 262.625V238.75H549.125V262.625C549.087 294.274 536.498 324.615 514.119 346.994C491.74 369.373 461.399 381.962 429.75 382Z" fill="#F8F8F8"/>
</svg>
