<svg width="388" height="388" viewBox="0 0 388 388" fill="none" xmlns="http://www.w3.org/2000/svg">
<path d="M129.334 323.333V226.333H258.667V323.333H307.167V64.6667H80.8337V323.333H129.334ZM161.667 323.333H226.334V258.667H161.667V323.333ZM339.5 323.333H371.834V355.667H16.167V323.333H48.5003V48.5C48.5003 44.2124 50.2036 40.1003 53.2354 37.0685C56.2673 34.0366 60.3793 32.3334 64.667 32.3334H323.334C327.621 32.3334 331.733 34.0366 334.765 37.0685C337.797 40.1003 339.5 44.2124 339.5 48.5V323.333ZM177.834 129.333V97H210.167V129.333H242.5V161.667H210.167V194H177.834V161.667H145.5V129.333H177.834Z" fill="#F8F8F8"/>
</svg>
