<svg width="3533" height="3833" viewBox="0 0 3533 3833" fill="none" xmlns="http://www.w3.org/2000/svg">
<path d="M3472 606.323L2988 50H548L64 614.05C64 614.05 117.984 684.148 144 733.814C169.67 782.818 180.748 812.262 196 865.168C215.083 931.359 217.471 970.599 224 1039.02C233.605 1139.68 234.847 1197.32 224 1297.86C213.586 1394.39 192.917 1446.33 172 1541.25C146.359 1657.62 122.381 1721.09 104 1838.73C89.4799 1931.66 79.8471 1984.28 80 2078.26C80.1505 2170.74 91.9929 2222.18 104 2313.93C116.689 2410.88 116.213 2467.21 144 2561.18C167.1 2639.3 189.179 2680.39 224 2754.35C258.124 2826.83 277.926 2867.46 320 2935.93C373.755 3023.4 405.782 3072.59 476 3148.41C534.218 3211.27 573.298 3240.78 640 3295.22C754.572 3388.72 822.553 3438.38 952 3511.57C1087.11 3587.95 1168.59 3622.88 1316 3673.83C1490.08 3734 1776 3782 1776 3782C1776 3782 1935.12 3741.81 2036 3712.46C2193.98 3666.5 2286.44 3648.39 2436 3581.11C2555.26 3527.45 2619.03 3490.04 2728 3418.84C2836.71 3347.81 2898.11 3306.54 2992 3217.95C3080.84 3134.12 3125.43 3081 3196 2982.29C3277.82 2867.84 3321.98 2799.77 3372 2669.35C3419.27 2546.13 3448 2340.97 3448 2340.97C3448 2340.97 3459.7 2105.08 3448 1954.63C3439.74 1848.45 3435.98 1788.13 3412 1684.2C3385.13 1567.78 3336.03 1511.44 3312 1394.45C3292.46 1299.32 3283.96 1244.1 3288 1147.19C3292.22 1046.07 3305.73 989.104 3336 892.211C3372.75 774.584 3472 606.323 3472 606.323Z" fill="white"/>
<path d="M3472 606.323L2988 50H548L64 614.05C64 614.05 117.984 684.148 144 733.814C169.67 782.818 180.748 812.262 196 865.168C215.083 931.359 217.471 970.599 224 1039.02C233.605 1139.68 234.847 1197.32 224 1297.86C213.586 1394.39 192.917 1446.33 172 1541.25C146.359 1657.62 122.381 1721.09 104 1838.73C89.4799 1931.66 79.8471 1984.28 80 2078.26C80.1505 2170.74 91.9929 2222.18 104 2313.93C116.689 2410.88 116.213 2467.21 144 2561.18C167.1 2639.3 189.179 2680.39 224 2754.35C258.124 2826.83 277.926 2867.46 320 2935.93C373.755 3023.4 405.782 3072.59 476 3148.41C534.218 3211.27 573.298 3240.78 640 3295.22C754.572 3388.72 822.553 3438.38 952 3511.57C1087.11 3587.95 1168.59 3622.88 1316 3673.83C1490.08 3734 1776 3782 1776 3782C1776 3782 1935.12 3741.81 2036 3712.46C2193.98 3666.5 2286.44 3648.39 2436 3581.11C2555.26 3527.45 2619.03 3490.04 2728 3418.84C2836.71 3347.81 2898.11 3306.54 2992 3217.95C3080.84 3134.12 3125.43 3081 3196 2982.29C3277.82 2867.84 3321.98 2799.77 3372 2669.35C3419.27 2546.13 3448 2340.97 3448 2340.97C3448 2340.97 3459.7 2105.08 3448 1954.63C3439.74 1848.45 3435.98 1788.13 3412 1684.2C3385.13 1567.78 3336.03 1511.44 3312 1394.45C3292.46 1299.32 3283.96 1244.1 3288 1147.19C3292.22 1046.07 3305.73 989.104 3336 892.211C3372.75 774.584 3472 606.323 3472 606.323Z" stroke="black" stroke-width="99"/>
</svg>
