<svg width="3408" height="3732" viewBox="0 0 3408 3732" fill="none" xmlns="http://www.w3.org/2000/svg">
<path d="M3408 556.323L2924 0H484L0 564.05C0 564.05 53.9839 634.148 80 683.814C105.67 732.818 116.748 762.262 132 815.168C151.083 881.359 153.471 920.599 160 989.019C169.605 1089.68 170.847 1147.32 160 1247.86C149.586 1344.39 128.917 1396.33 108 1491.25C82.3593 1607.62 58.3814 1671.09 40 1788.73C25.4799 1881.66 15.8471 1934.28 16 2028.26C16.1505 2120.74 27.9929 2172.18 40 2263.93C52.6892 2360.88 52.2134 2417.21 80 2511.18C103.1 2589.3 125.179 2630.39 160 2704.35C194.124 2776.83 213.926 2817.46 256 2885.93C309.755 2973.4 341.782 3022.59 412 3098.41C470.218 3161.27 509.298 3190.78 576 3245.22C690.572 3338.72 758.553 3388.38 888 3461.57C1023.11 3537.95 1104.59 3572.88 1252 3623.83C1426.08 3684 1712 3732 1712 3732C1712 3732 1871.12 3691.81 1972 3662.46C2129.98 3616.5 2222.44 3598.39 2372 3531.11C2491.26 3477.45 2555.03 3440.04 2664 3368.84C2772.71 3297.81 2834.11 3256.54 2928 3167.95C3016.84 3084.12 3061.43 3031 3132 2932.29C3213.82 2817.84 3257.98 2749.77 3308 2619.35C3355.27 2496.13 3384 2290.97 3384 2290.97C3384 2290.97 3395.7 2055.08 3384 1904.63C3375.74 1798.45 3371.98 1738.13 3348 1634.2C3321.13 1517.78 3272.03 1461.44 3248 1344.45C3228.46 1249.32 3219.96 1194.1 3224 1097.19C3228.22 996.066 3241.73 939.104 3272 842.211C3308.75 724.584 3408 556.323 3408 556.323Z" fill="black"/>
</svg>
