<svg width="376" height="359" viewBox="0 0 376 359" fill="none" xmlns="http://www.w3.org/2000/svg">
<path d="M302.34 120.806C304.492 95.2175 312.209 71.7266 325.793 50.1862L273.671 0C257.208 13.6456 238.447 21.2076 217.208 22.5389C197.734 24.2339 179.282 20.6735 161.914 11.8345C144.065 20.3794 125.683 23.963 106.526 22.5389C87.0281 20.9817 68.3821 13.881 52.7873 2.07432L0.534522 52.245C13.3907 74.0873 20.5502 96.9435 21.9511 120.806C22.6167 131.789 19.3659 146.928 12.0516 166.472C8.73269 175.702 5.83239 185.077 3.35962 194.568C1.53298 202.378 0.395203 208.709 0.00820323 213.469C-0.254957 234.298 5.8132 253.106 18.2591 269.832C27.9883 282.038 44.0333 295.521 66.309 310.266C90.6746 322.208 109.537 329.956 122.749 333.261L133.709 338.176C137.153 339.755 140.845 341.311 144.692 342.998C153.013 347.797 158.841 352.99 161.914 358.354C165.691 352.542 171.658 347.487 179.584 342.998C184.336 341.037 189.048 338.98 193.717 336.829L201.991 333.269C204.816 331.93 208.508 330.382 212.998 328.671C218.552 326.554 224.136 324.513 229.747 322.549C242.618 318.168 251.992 314.012 257.944 310.266C279.554 295.529 295.351 282.255 305.405 270.405C318.292 253.624 324.562 234.723 324.276 213.485C323.509 203.964 319.322 188.748 311.721 168.012C304.492 147.803 301.295 132.122 302.34 120.806Z" fill="#F8F8F8"/>
<ellipse cx="314" cy="74.5" rx="62" ry="60.5" fill="#9D1922"/>
<path fill-rule="evenodd" clip-rule="evenodd" d="M324.149 41.1762C324.149 40.9643 324.064 40.761 323.914 40.6111C323.765 40.4612 323.561 40.377 323.349 40.377H300.96C298.627 40.377 296.39 41.3033 294.741 42.9521C293.091 44.601 292.165 46.8373 292.165 49.1691V93.9293C292.165 96.2611 293.091 98.4974 294.741 100.146C296.39 101.795 298.627 102.721 300.96 102.721H332.944C335.277 102.721 337.514 101.795 339.164 100.146C340.813 98.4974 341.74 96.2611 341.74 93.9293V62.4277C341.74 62.2157 341.656 62.0124 341.506 61.8625C341.356 61.7127 341.152 61.6284 340.94 61.6284H326.547C325.911 61.6284 325.301 61.3758 324.851 60.9261C324.401 60.4764 324.149 59.8665 324.149 59.2306V41.1762ZM326.547 72.3485C327.184 72.3485 327.794 72.6011 328.244 73.0508C328.694 73.5005 328.946 74.1104 328.946 74.7464C328.946 75.3823 328.694 75.9922 328.244 76.4419C327.794 76.8916 327.184 77.1442 326.547 77.1442H307.357C306.721 77.1442 306.111 76.8916 305.661 76.4419C305.211 75.9922 304.958 75.3823 304.958 74.7464C304.958 74.1104 305.211 73.5005 305.661 73.0508C306.111 72.6011 306.721 72.3485 307.357 72.3485H326.547ZM326.547 85.1371C327.184 85.1371 327.794 85.3897 328.244 85.8394C328.694 86.2891 328.946 86.899 328.946 87.535C328.946 88.1709 328.694 88.7808 328.244 89.2305C327.794 89.6802 327.184 89.9328 326.547 89.9328H307.357C306.721 89.9328 306.111 89.6802 305.661 89.2305C305.211 88.7808 304.958 88.1709 304.958 87.535C304.958 86.899 305.211 86.2891 305.661 85.8394C306.111 85.3897 306.721 85.1371 307.357 85.1371H326.547Z" fill="white"/>
<path d="M328.947 42.2114C328.947 41.6231 329.564 41.249 330.021 41.6167C330.408 41.93 330.757 42.2945 331.054 42.7101L340.691 56.1286C340.909 56.4355 340.672 56.832 340.295 56.832H329.746C329.534 56.832 329.331 56.7478 329.181 56.5979C329.031 56.448 328.947 56.2447 328.947 56.0327V42.2114Z" fill="white"/>
</svg>
