<svg width="1301" height="1301" viewBox="0 0 1301 1301" fill="none" xmlns="http://www.w3.org/2000/svg">
<path d="M1107.41 445.15C1114.64 359.128 1140.59 280.157 1186.25 207.744L1011.03 39.03C955.688 84.9033 892.616 110.325 821.217 114.8C755.75 120.499 693.719 108.529 635.33 78.8146C575.328 107.541 513.53 119.588 449.131 114.8C383.583 109.565 320.9 85.6946 268.474 46.0034L92.8129 214.665C136.032 288.093 160.101 364.931 164.81 445.15C167.048 482.073 156.12 532.968 131.531 598.668C120.373 629.696 110.623 661.213 102.31 693.121C96.1695 719.375 92.3446 740.659 91.0436 756.662C90.1589 826.681 110.559 889.91 152.399 946.139C185.106 987.173 239.045 1032.5 313.931 1082.07C395.842 1122.22 459.253 1148.26 503.669 1159.37L540.513 1175.9C552.092 1181.2 564.503 1186.43 577.435 1192.11C605.407 1208.24 625 1225.7 635.33 1243.73C648.028 1224.19 668.089 1207.2 694.734 1192.11C710.708 1185.51 726.549 1178.6 742.246 1171.37L770.061 1159.4C779.559 1154.9 791.97 1149.69 807.062 1143.94C825.736 1136.83 844.507 1129.96 863.369 1123.36C906.64 1108.63 938.151 1094.66 958.16 1082.07C1030.81 1032.53 1083.91 987.901 1117.71 948.065C1161.04 891.653 1182.11 828.113 1181.15 756.714C1178.58 724.709 1164.5 673.554 1138.95 603.846C1114.64 535.908 1103.9 483.191 1107.41 445.15Z" fill="#F8F8F8"/>
</svg>
