<svg width="780" height="780" viewBox="0 0 780 780" fill="none" xmlns="http://www.w3.org/2000/svg">
<path d="M156.152 107.25C154.934 107.25 153.563 107.402 152.344 107.585C105.132 115.675 57.7688 220.441 42.0469 258.375H387.562L405.691 221.965C386.801 191.496 351.914 145.245 316.875 147.195C293.871 148.413 249.844 198.961 249.844 198.961C249.844 198.961 195.914 106.778 156.152 107.25ZM453.375 188.297L404.625 285.797H283.207L221.203 430.523C254.719 435.551 284.273 452.918 304.992 477.75H438.445C445.758 468.914 454.137 461.144 463.43 454.441L507 258.375H581.496L606.328 188.297H453.375ZM31.9922 285.797V407.672L52.6652 413.004L107.204 285.797H31.9922ZM136.972 285.797L79.432 420.012L118.371 430.219L180.223 285.797H136.972ZM210.082 285.797L145.153 437.227L150.79 438.75C163.617 433.57 177.48 430.219 191.953 429.305L253.348 285.797H210.082ZM528.938 285.797L495.27 437.379C509.895 432.047 525.891 429 542.344 429C603.738 429 655.992 470.285 672.445 526.5H748.008V403.863L677.168 380.25L653.555 285.797H600.691H528.938ZM556.055 307.125H626.133L645.176 383.297H537.012L553.465 317.484L556.055 307.125ZM201.094 456.422C141.192 456.422 92.9297 504.715 92.9297 564.586C92.9297 624.457 141.192 672.75 201.094 672.75C260.965 672.75 309.258 624.457 309.258 564.586C309.258 504.715 260.965 456.422 201.094 456.422ZM542.344 456.422C482.473 456.422 434.18 504.715 434.18 564.586C434.18 624.457 482.473 672.75 542.344 672.75C602.215 672.75 650.508 624.457 650.508 564.586C650.508 504.715 602.215 456.422 542.344 456.422ZM53.8992 505.172L35.0086 599.625H70.1238C67.1227 588.504 65.5078 576.621 65.5078 564.586C65.5078 543.258 70.459 523.148 79.2797 505.172H53.8992ZM322.969 505.172C331.652 523.148 336.68 543.258 336.68 564.586C336.68 576.621 335.004 588.504 332.109 599.625H411.328C408.434 588.504 406.758 576.621 406.758 564.586C406.758 543.258 411.785 523.148 420.469 505.172H322.969ZM201.094 515.836C214.023 515.836 226.423 520.972 235.565 530.114C244.708 539.257 249.844 551.657 249.844 564.586C249.844 577.515 244.708 589.915 235.565 599.057C226.423 608.2 214.023 613.336 201.094 613.336C188.164 613.336 175.765 608.2 166.622 599.057C157.48 589.915 152.344 577.515 152.344 564.586C152.344 551.657 157.48 539.257 166.622 530.114C175.765 520.972 188.164 515.836 201.094 515.836ZM542.344 515.836C555.273 515.836 567.673 520.972 576.815 530.114C585.958 539.257 591.094 551.657 591.094 564.586C591.094 577.515 585.958 589.915 576.815 599.057C567.673 608.2 555.273 613.336 542.344 613.336C529.414 613.336 517.015 608.2 507.872 599.057C498.73 589.915 493.594 577.515 493.594 564.586C493.594 551.657 498.73 539.257 507.872 530.114C517.015 520.972 529.414 515.836 542.344 515.836ZM677.473 553.922C677.777 557.426 677.93 560.93 677.93 564.586C677.93 580.887 675.035 596.426 669.703 611.051L748.008 579.668V553.922H677.473Z" fill="#F8F8F8"/>
</svg>
