<svg width="1024" height="1024" viewBox="0 0 1024 1024" fill="none" xmlns="http://www.w3.org/2000/svg">
<path d="M192 128V832H576V128H192ZM160 64H608C616.487 64 624.626 67.3714 630.627 73.3726C636.629 79.3737 640 87.5131 640 96V864C640 872.487 636.629 880.626 630.627 886.627C624.626 892.629 616.487 896 608 896H160C151.513 896 143.374 892.629 137.373 886.627C131.371 880.626 128 872.487 128 864V96C128 87.5131 131.371 79.3737 137.373 73.3726C143.374 67.3714 151.513 64 160 64Z" fill="#F8F8F8"/>
<path d="M256 256H512V320H256V256ZM256 448H512V512H256V448ZM256 640H512V704H256V640ZM640 512H768V576H640V512ZM640 640H768V704H640V640ZM64 832H960V896H64V832Z" fill="#F8F8F8"/>
<path d="M640 384V832H832V384H640ZM608 320H864C872.487 320 880.626 323.371 886.627 329.373C892.629 335.374 896 343.513 896 352V864C896 872.487 892.629 880.626 886.627 886.627C880.626 892.629 872.487 896 864 896H608C599.513 896 591.374 892.629 585.373 886.627C579.371 880.626 576 872.487 576 864V352C576 343.513 579.371 335.374 585.373 329.373C591.374 323.371 599.513 320 608 320Z" fill="#F8F8F8"/>
</svg>
