<svg width="851" height="851" viewBox="0 0 851 851" fill="none" xmlns="http://www.w3.org/2000/svg">
<path d="M385.609 585.062C385.609 592.116 382.808 598.88 377.82 603.867C372.833 608.854 366.069 611.656 359.016 611.656H265.938C258.884 611.656 252.12 608.854 247.133 603.867C242.146 598.88 239.344 592.116 239.344 585.062C239.344 578.009 242.146 571.245 247.133 566.258C252.12 561.271 258.884 558.469 265.938 558.469H359.016C366.069 558.469 372.833 561.271 377.82 566.258C382.808 571.245 385.609 578.009 385.609 585.062ZM585.062 558.469H491.984C484.931 558.469 478.167 561.271 473.18 566.258C468.192 571.245 465.391 578.009 465.391 585.062C465.391 592.116 468.192 598.88 473.18 603.867C478.167 608.854 484.931 611.656 491.984 611.656H585.062C592.116 611.656 598.88 608.854 603.867 603.867C608.854 598.88 611.656 592.116 611.656 585.062C611.656 578.009 608.854 571.245 603.867 566.258C598.88 561.271 592.116 558.469 585.062 558.469ZM824.406 718.031C824.406 725.084 821.604 731.849 816.617 736.836C811.63 741.823 804.866 744.625 797.812 744.625H53.1875C46.1344 744.625 39.3702 741.823 34.3829 736.836C29.3956 731.849 26.5938 725.084 26.5938 718.031C26.5937 710.978 29.3956 704.214 34.3829 699.227C39.3702 694.239 46.1344 691.438 53.1875 691.438H106.375V292.531C106.375 287.592 107.75 282.751 110.347 278.55C112.943 274.349 116.658 270.954 121.076 268.745C125.493 266.536 130.438 265.601 135.357 266.045C140.276 266.488 144.974 268.293 148.925 271.256L319.125 398.906V292.531C319.125 287.592 320.5 282.751 323.097 278.55C325.693 274.349 329.408 270.954 333.826 268.745C338.243 266.536 343.188 265.601 348.107 266.045C353.026 266.488 357.724 268.293 361.675 271.256L490.455 367.825L528.883 98.8623C530.744 86.2088 537.081 74.6419 546.742 66.2614C556.403 57.8809 568.749 53.2423 581.539 53.1875H641.774C654.563 53.2423 666.909 57.8809 676.571 66.2614C686.232 74.6419 692.568 86.2088 694.429 98.8623L744.293 448.337C744.293 448.337 744.559 450.93 744.559 452.094V691.438H797.746C801.244 691.429 804.709 692.11 807.943 693.443C811.178 694.775 814.117 696.733 816.594 699.203C819.07 701.673 821.035 704.608 822.376 707.839C823.716 711.07 824.406 714.533 824.406 718.031ZM538.989 404.225L567.344 425.5H687.382L641.774 106.375H581.539L538.989 404.225ZM159.562 691.438H691.438V478.688H558.469C552.715 478.688 547.116 476.821 542.512 473.369L494.644 437.467L372.312 345.719V452.094C372.312 457.033 370.937 461.874 368.341 466.075C365.744 470.276 362.029 473.671 357.612 475.88C353.194 478.089 348.249 479.024 343.33 478.58C338.412 478.137 333.714 476.332 329.762 473.369L159.562 345.719V691.438Z" fill="#F8F8F8"/>
</svg>
