<svg width="3552" height="3890" viewBox="0 0 3552 3890" fill="none" xmlns="http://www.w3.org/2000/svg">
<path fill-rule="evenodd" clip-rule="evenodd" d="M3552 579.876L3047.55 0H504.451L0 587.93C0 587.93 56.2649 660.996 83.3803 712.764C110.135 763.843 121.681 794.533 137.577 849.679C155.667 912.431 159.363 951.943 165.004 1012.24L165.005 1012.25C165.566 1018.25 166.145 1024.44 166.761 1030.89C176.771 1135.81 178.066 1195.9 166.761 1300.69C159.518 1367.83 147.518 1414.27 133.857 1467.13C127.044 1493.5 119.818 1521.46 112.563 1554.39C102.396 1600.54 92.479 1638.7 83.0388 1675.04C67.6671 1734.2 53.5592 1788.5 41.6901 1864.46C40.4456 1872.43 39.2355 1880.11 38.0627 1887.55L38.0587 1887.58C24.9725 1970.65 16.5298 2024.24 16.6761 2114.13C16.7945 2186.95 23.8681 2235.36 32.7163 2295.92C35.5802 2315.52 38.63 2336.39 41.6901 2359.77C45.2219 2386.76 47.7752 2410.73 50.1722 2433.23C56.7513 2494.99 62.1534 2545.7 83.3803 2617.49C103.85 2686.73 123.55 2728.05 151.296 2786.26L151.309 2786.28C156.194 2796.53 161.328 2807.3 166.761 2818.84C202.326 2894.39 222.965 2936.74 266.817 3008.11C322.843 3099.29 356.224 3150.56 429.408 3229.59C482.598 3287.02 520.46 3317.75 575.822 3362.67C583.617 3369 591.758 3375.61 600.338 3382.61C719.751 3480.07 790.604 3531.83 925.521 3608.12C1066.34 3687.74 1151.27 3724.14 1304.9 3777.25C1486.33 3839.96 1784.34 3890 1784.34 3890C1784.34 3890 1950.18 3848.11 2055.32 3817.52C2092.42 3806.72 2126.06 3797.4 2157.68 3788.63C2266.43 3758.5 2351.47 3734.93 2472.23 3680.6C2596.52 3624.68 2662.99 3585.68 2776.56 3511.47C2889.87 3437.43 2953.87 3394.41 3051.72 3302.07C3144.31 3214.69 3190.78 3159.32 3264.34 3056.43C3349.61 2937.14 3395.64 2866.18 3447.77 2730.25C3497.04 2601.81 3526.99 2387.96 3526.99 2387.96C3526.99 2387.96 3539.18 2142.09 3526.99 1985.27C3526.52 1979.33 3526.08 1973.53 3525.64 1967.85V1967.85C3517.9 1867.71 3513.12 1805.9 3489.46 1703.39C3475.9 1644.6 3456.89 1600.51 3438.05 1556.81C3418.01 1510.3 3398.15 1464.24 3385.24 1401.37C3364.88 1302.21 3356.01 1244.65 3360.23 1143.64C3364.62 1038.24 3378.7 978.863 3410.25 877.867C3448.56 755.26 3552 579.876 3552 579.876ZM2886 1210H790L2814 2886C2814 2886 2874.67 2800.92 2906 2742C2947.13 2664.65 2964.54 2617.82 2990 2534C3023.21 2424.64 3033.34 2359.96 3042 2246C3048.39 2161.89 3051.54 2113.81 3042 2030C3035.78 1975.39 3024.63 1936.9 3012.44 1894.83C3005.05 1869.33 2997.28 1842.52 2990 1810C2987.68 1799.63 2985.45 1789.71 2983.3 1780.15C2963.87 1693.58 2951.12 1636.76 2934 1542C2921.9 1475.03 2915.64 1437.37 2906 1370C2897.08 1307.66 2886 1210 2886 1210ZM650 1374L2678 3042C2678 3042 2555.51 3130.11 2474 3182C2462.45 3189.35 2451.56 3196.32 2441.14 3203C2368.93 3249.22 2319.45 3280.89 2234 3322C2115.54 3378.99 2046.25 3409.12 1918 3438C1905.27 3440.87 1893.8 3443.72 1883.01 3446.41C1846.67 3455.46 1817.95 3462.61 1774 3462C1715.24 3461.19 1676.46 3445.3 1631.31 3426.8C1611.51 3418.68 1590.48 3410.07 1566 3402L1563.46 3401.16C1447.12 3362.82 1380.39 3340.83 1270 3286C1179.06 3240.83 1128.59 3213.07 1046 3154C1043.45 3152.18 1040.94 3150.38 1038.46 3148.61C971.766 3100.94 931.326 3072.04 874 3010C839.254 2972.4 819.503 2943.53 795.552 2908.52C786.618 2895.46 777.099 2881.54 766 2866C754.286 2849.6 743.612 2835.12 733.59 2821.53C703.324 2780.48 679.01 2747.51 650 2694C614.316 2628.18 596.16 2589.51 574 2518C546.343 2428.75 542.029 2373.26 535.065 2283.67C534.718 2279.2 534.364 2274.65 534 2270C526.685 2176.56 526.131 2123.4 534 2030C541.849 1936.85 551.356 1884.69 574 1794C584.007 1753.92 597.342 1722.95 610.276 1692.91C626.726 1654.71 642.526 1618.01 650 1566C660.666 1491.78 650 1374 650 1374Z" fill="black"/>
</svg>
