<svg width="759" height="759" viewBox="0 0 759 759" fill="none" xmlns="http://www.w3.org/2000/svg">
<path d="M584.524 530.257C541.298 540.636 496.173 540.133 453.189 528.793C410.205 517.453 370.704 495.63 338.224 465.277C305.744 434.925 281.298 396.991 267.076 354.872C252.854 312.754 249.3 267.766 256.731 223.937C255.601 225.028 254.408 226.053 253.157 227.004C244.302 233.741 233.234 236.239 211.096 241.236L191.014 245.79C113.217 263.405 74.3181 272.197 65.052 301.956C55.8175 331.683 82.3193 362.707 135.354 424.724L149.08 440.758C164.133 458.373 171.691 467.196 175.075 478.075C178.459 488.986 177.321 500.75 175.044 524.248L172.956 545.658C164.955 628.421 160.939 669.786 185.164 688.16C209.388 706.566 245.82 689.805 318.621 656.251L337.501 647.585C358.184 638.035 368.525 633.291 379.499 633.291C390.473 633.291 400.815 638.035 421.529 647.585L440.346 656.251C513.178 689.773 549.61 706.534 573.803 688.192C598.06 669.786 594.043 628.421 586.042 545.658L584.524 530.257Z" fill="#FFD233"/>
<path opacity="0.5" d="M289.463 171.026L279.09 189.621C267.705 210.051 262.013 220.266 253.158 227.002C254.423 226.053 255.593 225.041 256.731 223.934C249.298 267.767 252.852 312.759 267.076 354.88C281.299 397.002 305.748 434.938 338.232 465.292C370.716 495.645 410.222 517.467 453.21 528.805C496.199 540.142 541.328 540.64 584.556 530.254L583.924 524.245C581.678 500.748 580.54 488.984 583.924 478.073C587.307 467.194 594.834 458.371 609.919 440.755L623.645 424.722C676.68 362.737 703.181 331.712 693.915 301.953C684.681 272.194 645.782 263.371 567.985 245.787L547.871 241.233C525.765 236.237 514.696 233.738 505.81 227.002C496.955 220.266 491.262 210.051 479.877 189.621L469.536 171.026C429.467 99.1738 409.448 63.2478 379.5 63.2478C349.551 63.2478 329.532 99.1738 289.463 171.026Z" fill="#FFD233"/>
</svg>
