<svg width="1632" height="1632" viewBox="0 0 1632 1632" fill="none" xmlns="http://www.w3.org/2000/svg">
<g clip-path="url(#clip0_205_40)">
<path d="M858.43 22.7558C853.773 15.7709 847.463 10.0438 840.061 6.08282C832.659 2.12179 824.394 0.0493164 815.998 0.0493164C807.603 0.0493164 799.338 2.12179 791.936 6.08282C784.534 10.0438 778.224 15.7709 773.566 22.7558L467.566 481.756C462.456 489.436 459.524 498.358 459.083 507.573C458.642 516.787 460.709 525.949 465.063 534.082C469.417 542.215 475.896 549.014 483.809 553.756C491.722 558.498 500.773 561.005 509.998 561.01H519.994L313.75 890.98C308.925 898.7 306.255 907.57 306.016 916.671C305.777 925.772 307.978 934.77 312.391 942.733C316.805 950.695 323.269 957.331 331.113 961.952C338.957 966.573 347.895 969.01 356.998 969.01H376.48L209.404 1303.16C205.508 1310.94 203.665 1319.58 204.05 1328.27C204.435 1336.96 207.036 1345.4 211.605 1352.8C216.173 1360.2 222.559 1366.31 230.154 1370.55C237.749 1374.79 246.301 1377.01 254.998 1377.01H713.998V1632.01H917.998V1377.01H1377C1385.7 1377.01 1394.25 1374.79 1401.84 1370.55C1409.44 1366.31 1415.82 1360.2 1420.39 1352.8C1424.96 1345.4 1427.56 1336.96 1427.95 1328.27C1428.33 1319.58 1426.49 1310.94 1422.59 1303.16L1255.62 969.01H1275.1C1284.2 969.01 1293.14 966.573 1300.99 961.952C1308.83 957.331 1315.29 950.695 1319.71 942.733C1324.12 934.77 1326.32 925.772 1326.08 916.671C1325.84 907.57 1323.17 898.7 1318.35 890.98L1112 561.01H1122C1131.22 561.005 1140.27 558.498 1148.19 553.756C1156.1 549.014 1162.58 542.215 1166.93 534.082C1171.29 525.949 1173.35 516.787 1172.91 507.573C1172.47 498.358 1169.54 489.436 1164.43 481.756L858.43 22.7558ZM656.572 485.326C652.167 477.361 645.71 470.72 637.872 466.092C630.034 461.465 621.1 459.019 611.998 459.01H605.266L815.998 142.912L1026.73 459.01H1020C1010.89 459.01 1001.96 461.447 994.113 466.067C986.269 470.688 979.805 477.324 975.391 485.287C970.978 493.249 968.777 502.248 969.016 511.348C969.255 520.449 971.925 529.32 976.75 537.04L1182.99 867.01H1173C1164.3 867.01 1155.75 869.234 1148.15 873.471C1140.56 877.708 1134.17 883.817 1129.6 891.217C1125.04 898.617 1122.44 907.063 1122.05 915.751C1121.66 924.44 1123.51 933.082 1127.4 940.858L1294.38 1275.01H337.516L504.592 940.858C508.489 933.082 510.332 924.44 509.947 915.751C509.561 907.063 506.961 898.617 502.392 891.217C497.823 883.817 491.438 877.708 483.843 873.471C476.248 869.234 467.695 867.01 458.998 867.01H449.002L655.246 537.04C660.059 529.321 662.72 520.456 662.953 511.363C663.186 502.27 660.983 493.281 656.572 485.326Z" fill="#F8F8F8"/>
</g>
<defs>
<clipPath id="clip0_205_40">
<rect width="1632" height="1632" fill="white"/>
</clipPath>
</defs>
</svg>
