<svg width="636" height="636" viewBox="0 0 636 636" fill="none" xmlns="http://www.w3.org/2000/svg">
<path d="M331.25 79.5H119.25C108.708 79.5 98.5971 83.6879 91.1425 91.1425C83.6879 98.5971 79.5 108.708 79.5 119.25V410.75C79.5 421.292 83.6879 431.403 91.1425 438.857C98.5971 446.312 108.708 450.5 119.25 450.5H516.75C527.292 450.5 537.403 446.312 544.857 438.857C552.312 431.403 556.5 421.292 556.5 410.75V318M318 450.5V556.5M185.5 556.5H450.5M490.25 238.5V79.5M490.25 79.5L424 145.75M490.25 79.5L556.5 145.75" stroke="#F8F8F8" stroke-width="53" stroke-linecap="round" stroke-linejoin="round"/>
</svg>
