<svg width="1868" height="1868" viewBox="0 0 1868 1868" fill="none" xmlns="http://www.w3.org/2000/svg">
<path d="M544.836 389.167H1790.17V700.501H1712.34V778.334H1245.34C1224.69 778.334 1204.9 786.534 1190.3 801.131C1175.7 815.727 1167.5 835.525 1167.5 856.167V934.001C1167.5 975.286 1151.1 1014.88 1121.91 1044.07C1092.72 1073.27 1053.12 1089.67 1011.84 1089.67H748.759C719.182 1089.67 691.941 1106.79 678.709 1133.25L488.017 1513.86C474.786 1540.32 448.322 1556.67 418.746 1556.67H155.669C155.669 1556.67 -77.8309 1556.67 233.502 1089.67C233.502 1089.67 467.002 778.334 155.669 778.334V389.167H233.502L272.419 311.334H505.919L544.836 389.167ZM1089.67 934.001V856.167C1089.67 835.525 1081.47 815.727 1066.87 801.131C1052.28 786.534 1032.48 778.334 1011.84 778.334H934.002C934.002 778.334 856.169 856.167 934.002 934.001C892.717 934.001 853.123 917.6 823.93 888.407C794.736 859.214 778.336 819.619 778.336 778.334C757.693 778.334 737.896 786.534 723.299 801.131C708.703 815.727 700.502 835.525 700.502 856.167V934.001C700.502 954.643 708.703 974.441 723.299 989.037C737.896 1003.63 757.693 1011.83 778.336 1011.83H1011.84C1032.48 1011.83 1052.28 1003.63 1066.87 989.037C1081.47 974.441 1089.67 954.643 1089.67 934.001Z" fill="#F8F8F8"/>
</svg>
