<svg width="1324" height="1324" viewBox="0 0 1324 1324" fill="none" xmlns="http://www.w3.org/2000/svg">
<path d="M496.665 330.994C496.665 287.144 514.085 245.091 545.091 214.085C576.097 183.079 618.151 165.659 662 165.659C705.849 165.659 747.903 183.079 778.909 214.085C809.915 245.091 827.335 287.144 827.335 330.994C827.335 374.843 809.915 416.897 778.909 447.903C747.903 478.909 705.849 496.328 662 496.328C618.151 496.328 576.097 478.909 545.091 447.903C514.085 416.897 496.665 374.843 496.665 330.994ZM662 248.409C651.155 248.409 640.416 250.546 630.396 254.696C620.377 258.846 611.273 264.929 603.604 272.598C595.935 280.267 589.852 289.371 585.702 299.39C581.552 309.41 579.415 320.149 579.415 330.994C579.415 341.839 581.552 352.578 585.702 362.598C589.852 372.617 595.935 381.721 603.604 389.39C611.273 397.059 620.377 403.142 630.396 407.292C640.416 411.442 651.155 413.578 662 413.578C683.903 413.578 704.908 404.878 720.396 389.39C735.884 373.902 744.585 352.897 744.585 330.994C744.585 309.091 735.884 288.085 720.396 272.598C704.908 257.11 683.903 248.409 662 248.409ZM910.25 372.369C910.25 356.069 913.461 339.928 919.698 324.868C925.936 309.809 935.079 296.125 946.605 284.599C958.131 273.073 971.815 263.93 986.874 257.692C1001.93 251.454 1018.07 248.244 1034.38 248.244C1050.68 248.244 1066.82 251.454 1081.88 257.692C1096.94 263.93 1110.62 273.073 1122.14 284.599C1133.67 296.125 1142.81 309.809 1149.05 324.868C1155.29 339.928 1158.5 356.069 1158.5 372.369C1158.5 405.289 1145.42 436.861 1122.14 460.139C1098.87 483.417 1067.29 496.494 1034.38 496.494C1001.46 496.494 969.883 483.417 946.605 460.139C923.327 436.861 910.25 405.289 910.25 372.369ZM1034.38 330.994C1023.4 330.994 1012.88 335.353 1005.12 343.112C997.359 350.872 993 361.396 993 372.369C993 383.342 997.359 393.866 1005.12 401.625C1012.88 409.385 1023.4 413.744 1034.38 413.744C1045.35 413.744 1055.87 409.385 1063.63 401.625C1071.39 393.866 1075.75 383.342 1075.75 372.369C1075.75 361.396 1071.39 350.872 1063.63 343.112C1055.87 335.353 1045.35 330.994 1034.38 330.994ZM289.625 248.244C256.705 248.244 225.133 261.321 201.855 284.599C178.577 307.877 165.5 339.449 165.5 372.369C165.5 405.289 178.577 436.861 201.855 460.139C225.133 483.417 256.705 496.494 289.625 496.494C322.545 496.494 354.117 483.417 377.395 460.139C400.673 436.861 413.75 405.289 413.75 372.369C413.75 339.449 400.673 307.877 377.395 284.599C354.117 261.321 322.545 248.244 289.625 248.244ZM248.25 372.369C248.25 361.396 252.609 350.872 260.368 343.112C268.128 335.353 278.652 330.994 289.625 330.994C300.598 330.994 311.122 335.353 318.882 343.112C326.641 350.872 331 361.396 331 372.369C331 383.342 326.641 393.866 318.882 401.625C311.122 409.385 300.598 413.744 289.625 413.744C278.652 413.744 268.128 409.385 260.368 401.625C252.609 393.866 248.25 383.342 248.25 372.369ZM353.177 579.244C338.613 604.388 330.962 632.937 331 661.994H165.5V868.869C165.493 889.452 170.605 909.714 180.376 927.83C190.146 945.946 204.268 961.348 221.471 972.65C238.674 983.951 258.417 990.798 278.923 992.572C299.43 994.347 320.056 990.994 338.944 982.816C345.068 1010.21 354.667 1036.35 367.079 1060.77C335.672 1073.45 301.633 1078.22 267.949 1074.67C234.266 1071.13 201.969 1059.36 173.894 1040.41C145.82 1021.47 122.827 995.914 106.936 966.004C91.0437 936.094 82.7387 902.739 82.75 868.869V661.994C82.75 640.047 91.4683 619 106.987 603.481C122.506 587.962 143.553 579.244 165.5 579.244H353.177ZM956.921 1060.77C988.328 1073.45 1022.37 1078.22 1056.05 1074.67C1089.73 1071.13 1122.03 1059.36 1150.11 1040.41C1178.18 1021.47 1201.17 995.914 1217.06 966.004C1232.96 936.094 1241.26 902.739 1241.25 868.869V661.994C1241.25 640.047 1232.53 619 1217.01 603.481C1201.49 587.962 1180.45 579.244 1158.5 579.244H970.823C984.891 603.572 993 631.79 993 661.994H1158.5V868.869C1158.51 889.452 1153.39 909.714 1143.62 927.83C1133.85 945.946 1119.73 961.348 1102.53 972.65C1085.33 983.951 1065.58 990.798 1045.08 992.572C1024.57 994.347 1003.94 990.994 985.056 982.816C978.85 1010.21 969.334 1036.35 956.921 1060.77ZM496.5 579.161C474.553 579.161 453.506 587.879 437.987 603.398C422.468 618.917 413.75 639.964 413.75 661.911V910.244C413.75 976.084 439.905 1039.23 486.461 1085.78C533.017 1132.34 596.16 1158.49 662 1158.49C727.84 1158.49 790.983 1132.34 837.539 1085.78C884.095 1039.23 910.25 976.084 910.25 910.244V661.994C910.25 640.047 901.532 619 886.013 603.481C870.494 587.962 849.447 579.244 827.5 579.244H496.5V579.161ZM496.5 661.911H827.5V910.244C827.5 954.137 810.063 996.233 779.026 1027.27C747.989 1058.31 705.893 1075.74 662 1075.74C618.107 1075.74 576.011 1058.31 544.974 1027.27C513.937 996.233 496.5 954.137 496.5 910.244V661.994V661.911Z" fill="#F8F8F8"/>
</svg>
