<svg width="1828" height="1828" viewBox="0 0 1828 1828" fill="none" xmlns="http://www.w3.org/2000/svg">
<path d="M914 114.25L228.5 342.75V1028.25C228.5 1406.88 535.368 1713.75 914 1713.75C1292.63 1713.75 1599.5 1406.88 1599.5 1028.25V342.75L914 114.25ZM1470.97 1028.25C1470.97 1335.83 1221.58 1585.22 914 1585.22C606.418 1585.22 357.031 1335.83 357.031 1028.25V439.148L914 242.781L1470.97 439.148V1028.25Z" fill="#F8F8F8"/>
<path d="M675.503 848.128C669.547 842.144 662.467 837.396 654.67 834.156C646.874 830.916 638.514 829.248 630.071 829.248C621.628 829.248 613.268 830.916 605.472 834.156C597.675 837.396 590.595 842.144 584.639 848.128C578.655 854.084 573.907 861.164 570.667 868.961C567.427 876.757 565.759 885.117 565.759 893.56C565.759 902.003 567.427 910.363 570.667 918.159C573.907 925.956 578.655 933.036 584.639 938.992L815.638 1169.99L819.387 1173.74C825.021 1179.39 831.713 1183.86 839.08 1186.92C846.447 1189.97 854.344 1191.55 862.32 1191.55C870.295 1191.55 878.192 1189.97 885.559 1186.92C892.926 1183.86 899.619 1179.39 905.253 1173.74L1304.24 774.758C1309.88 769.124 1314.36 762.432 1317.41 755.065C1320.47 747.698 1322.04 739.8 1322.04 731.825C1322.04 723.849 1320.47 715.952 1317.41 708.585C1314.36 701.218 1309.88 694.526 1304.24 688.892L1299.24 683.893C1293.6 678.249 1286.91 673.77 1279.54 670.715C1272.18 667.659 1264.28 666.086 1256.3 666.086C1248.33 666.086 1240.43 667.659 1233.06 670.715C1225.7 673.77 1219 678.249 1213.37 683.893L862.23 1034.86L675.503 848.128Z" fill="#F8F8F8"/>
</svg>
